<?xml version="1.0" encoding="UTF-8"?>
<svg id="LOGO_COLOR_DARK-VERTICAL" xmlns="http://www.w3.org/2000/svg" viewBox="0 0 2100 1800">
  <defs>
    <style>
      .cls-1 {
        fill: #00aabc;
      }

      .cls-2 {
        fill: #f7e600;
      }

      .cls-3, .cls-4 {
        fill: #221f1f;
      }

      .cls-4 {
        stroke: #221f1f;
        stroke-miterlimit: 10;
        stroke-width: .75px;
      }
    </style>
  </defs>
  <g id="logo_vertical">
    <g id="Text">
      <g>
        <path class="cls-4" d="M491.17,1272.56h-28.06c-.9,0-1.77-.29-2.49-.83l-117.07-87.3c-2.75-2.05-6.65-.09-6.65,3.34v80.63c0,2.3-1.86,4.16-4.16,4.16h-19.15c-2.3,0-4.16-1.86-4.16-4.16v-178.39c0-2.3,1.86-4.16,4.16-4.16h19.15c2.3,0,4.16,1.86,4.16,4.16v75.43c0,3.4,3.86,5.37,6.61,3.37l113.12-82.16c.71-.52,1.57-.79,2.45-.79h26.47c4.05,0,5.72,5.2,2.42,7.55l-110.92,79.26c-2.31,1.65-2.33,5.07-.04,6.74l116.62,85.64c3.24,2.38,1.56,7.52-2.46,7.52Z"/>
        <path class="cls-4" d="M597.62,1252.02h44.75c2.3,0,4.16,1.86,4.16,4.16v12.21c0,2.3-1.86,4.16-4.16,4.16h-129.04c-2.3,0-4.16-1.86-4.16-4.16v-12.21c0-2.3,1.86-4.16,4.16-4.16h51.42c2.3,0,4.16-1.86,4.16-4.16v-123.33c0-14.4-5.6-20-21.61-20-6.17,0-10.71.74-15.83,2.45-2.7.9-5.51-1.07-5.51-3.91v-12.21c0-1.73,1.06-3.33,2.68-3.94,8.45-3.17,16.94-4.26,25.86-4.26,28.01,0,38.94,10.94,38.94,33.34v131.87c0,2.3,1.86,4.16,4.16,4.16Z"/>
        <path class="cls-4" d="M662.52,1198.94v-56.92c0-2.3,1.86-4.16,4.16-4.16h16.21c2.3,0,4.16,1.86,4.16,4.16v51.85c0,39.48,21.87,61.34,59.21,61.34s59.21-21.87,59.21-61.34v-51.85c0-2.3,1.86-4.16,4.16-4.16h16.21c2.3,0,4.16,1.86,4.16,4.16v126.37c0,2.3-1.86,4.16-4.16,4.16h-15.77c-2.46,0-4.39-2.13-4.14-4.58l3.81-38.1h-3.47c-6.67,26.14-29.07,45.88-68.28,45.88-46.94,0-75.48-28.54-75.48-76.82Z"/>
        <path class="cls-4" d="M864.66,1205.34c0-39.47,31.21-70.68,88.82-70.68,50.2,0,80.88,23.38,87.68,54.32.56,2.53-1.51,4.89-4.1,4.89h-16.32c-1.91,0-3.48-1.32-4.01-3.15-5.46-18.99-26.09-35.52-63.25-35.52-41.88,0-64.28,22.41-64.28,50.14s22.4,49.88,64.28,49.88c37.16,0,57.79-16.53,63.25-35.52.53-1.83,2.1-3.15,4.01-3.15h16.32c2.59,0,4.66,2.36,4.1,4.89-6.81,30.95-37.49,54.32-87.68,54.32-57.61,0-88.82-31.2-88.82-70.42Z"/>
        <path class="cls-4" d="M1140.05,1252.02h39.15c2.3,0,4.16,1.86,4.16,4.16v12.21c0,2.3-1.86,4.16-4.16,4.16h-117.04c-2.3,0-4.16-1.86-4.16-4.16v-12.21c0-2.3,1.86-4.16,4.16-4.16h45.82c2.3,0,4.16-1.86,4.16-4.16v-71.32c0-14.4-5.6-20-19.74-20-5.05,0-8.92.66-12.98,1.87-2.69.81-5.42-1.14-5.42-3.95v-12.31c0-1.77,1.11-3.39,2.79-3.96,7.31-2.47,14.56-3.52,23.09-3.52,25.07,0,36.01,10.93,36.01,33.61v79.59c0,2.3,1.86,4.16,4.16,4.16ZM1102.81,1095.99c0-8.54,6.4-14.93,17.07-14.93s17.07,6.4,17.07,14.93-6.4,14.93-17.07,14.93-17.07-6.4-17.07-14.93Z"/>
      </g>
      <path class="cls-4" d="M309.43,1567.15v-12.51c0-1.27.58-2.46,1.57-3.25l113.66-90.77v-3.47h-108.39c-2.3,0-4.16-1.86-4.16-4.16v-12.21c0-2.3,1.86-4.16,4.16-4.16h142.64c2.3,0,4.16,1.86,4.16,4.16v12.51c0,1.27-.58,2.46-1.57,3.25l-113.66,90.77v3.46h113.73c2.3,0,4.16,1.86,4.16,4.16v12.21c0,2.3-1.86,4.16-4.16,4.16h-147.98c-2.3,0-4.16-1.86-4.16-4.16Z"/>
      <g>
        <g>
          <path class="cls-4" d="M848.38,1563.95v-126.37c0-2.3,1.86-4.16,4.16-4.16h15.77c2.46,0,4.39,2.13,4.14,4.58l-3.81,38.1h3.47c6.67-25.61,29.6-45.88,70.15-45.88,48.54,0,77.62,29.08,77.62,78.42v55.31c0,2.3-1.86,4.16-4.16,4.16h-16.22c-2.3,0-4.16-1.86-4.16-4.16v-50.25c0-40.54-22.4-62.95-61.35-62.95s-61.08,22.41-61.08,62.95v50.25c0,2.3-1.86,4.16-4.16,4.16h-16.21c-2.3,0-4.16-1.86-4.16-4.16Z"/>
          <path class="cls-4" d="M1057.18,1530.77c0-22.94,17.34-40.28,62.95-40.28,37.88,0,58.42,9.34,76.55,20.01v-13.61c0-27.2-18.94-46.14-59.75-46.14-36.76,0-53.59,14.77-58.41,29.14-.56,1.67-2.02,2.87-3.78,2.87h-16.59c-2.73,0-4.66-2.56-4.05-5.22,5.8-25.35,30.66-47.32,83.09-47.32,57.35,0,84.02,26.67,84.02,67.48v40.01c0,9.07,4,13.07,11.74,13.07,2.93,0,5.87-.53,8.8-1.33v16.57c0,1.87-1.26,3.59-3.07,4.04-3.78.93-7.15,1.27-10.53,1.27-17.87,0-28-10.13-28-25.07v-1.87h-3.47v.27c0,12.27-28.27,26.67-76.55,26.67-45.61,0-62.95-17.33-62.95-40.54ZM1196.68,1529.67h0c0-3.08-1.74-5.91-4.53-7.22-15.78-7.44-34.34-14.08-63.75-14.08-37.07,0-46.68,9.6-46.68,21.87s9.6,21.87,46.68,21.87c29.57,0,49.67-7.27,64.1-15.4,2.56-1.44,4.18-4.1,4.18-7.04Z"/>
          <path class="cls-4" d="M1267.06,1563.95v-126.37c0-2.3,1.86-4.16,4.16-4.16h15.77c2.46,0,4.39,2.13,4.14,4.58l-3.81,38.1h3.47c6.67-25.61,29.6-45.88,70.15-45.88,48.55,0,77.62,29.08,77.62,78.42v55.31c0,2.3-1.86,4.16-4.16,4.16h-16.21c-2.3,0-4.16-1.86-4.16-4.16v-50.25c0-40.54-22.41-62.95-61.35-62.95s-61.08,22.41-61.08,62.95v50.25c0,2.3-1.86,4.16-4.16,4.16h-16.21c-2.3,0-4.16-1.86-4.16-4.16Z"/>
          <path class="cls-4" d="M1471.87,1500.89c0-39.48,31.2-70.68,88.82-70.68,50.2,0,80.88,23.38,87.69,54.32.56,2.53-1.51,4.89-4.1,4.89h-16.32c-1.91,0-3.48-1.32-4.01-3.15-5.46-18.99-26.09-35.52-63.25-35.52-41.87,0-64.28,22.41-64.28,50.14s22.41,49.88,64.28,49.88c37.17,0,57.8-16.53,63.25-35.52.53-1.83,2.1-3.15,4.01-3.15h16.32c2.59,0,4.66,2.36,4.1,4.89-6.81,30.95-37.49,54.32-87.69,54.32-57.61,0-88.82-31.2-88.82-70.42Z"/>
          <path class="cls-4" d="M1747.25,1547.57h39.15c2.3,0,4.16,1.86,4.16,4.16v12.21c0,2.3-1.86,4.16-4.16,4.16h-117.04c-2.3,0-4.16-1.86-4.16-4.16v-12.21c0-2.3,1.86-4.16,4.16-4.16h45.82c2.3,0,4.16-1.86,4.16-4.16v-71.32c0-14.4-5.6-20-19.74-20-5.05,0-8.91.66-12.98,1.87-2.69.81-5.42-1.14-5.42-3.95v-12.31c0-1.77,1.11-3.39,2.79-3.96,7.31-2.47,14.57-3.52,23.09-3.52,25.07,0,36.01,10.93,36.01,33.61v79.59c0,2.3,1.86,4.16,4.16,4.16ZM1760.25,1376.25l-27.83,32.99c-1.52,1.8-3.76,2.84-6.12,2.84h-9.31c-3.27,0-5.26-3.6-3.53-6.37l21.47-34.35c.76-1.22,2.09-1.96,3.53-1.96h18.6c3.54,0,5.47,4.14,3.18,6.85Z"/>
        </g>
        <g>
          <path class="cls-4" d="M784.43,1547.57h39.15c2.3,0,4.16,1.86,4.16,4.16v12.21c0,2.3-1.86,4.16-4.16,4.16h-117.82c-2.3,0-4.16-1.86-4.16-4.16v-12.21c0-2.3,1.86-4.16,4.16-4.16h45.81c2.3,0,4.16-1.86,4.16-4.16v-64.11c0-14.4-5.6-20-20.54-20h-136.12c-2.3,0-4.16,1.86-4.16,4.16v100.48c0,2.3-1.86,4.16-4.16,4.16h-16.21c-2.3,0-4.16-1.86-4.16-4.16v-100.48c0-2.3-1.86-4.16-4.16-4.16h-37.01c-2.3,0-4.16-1.86-4.16-4.16v-10.88c0-2.3,1.86-4.16,4.16-4.16h46.51v-2.93c-17.33-1.6-33.34-10.4-33.34-27.2s16.27-33.07,78.67-33.07c54.85,0,76.43,20.06,78.51,42.77.22,2.4-1.75,4.44-4.16,4.44h-16.16c-2.19,0-3.9-1.72-4.1-3.9-1.29-13.95-15.22-24.11-54.09-24.11-44,0-54.14,10.14-54.14,20.54,0,12.27,14.13,18.93,24.8,23.47h151.75c25.87,0,36.8,10.93,36.8,33.6v69.71c0,2.3,1.86,4.16,4.16,4.16Z"/>
          <path class="cls-4" d="M748.44,1392.89c0-8.13,6.1-14.23,16.26-14.23s16.26,6.1,16.26,14.23-6.1,14.23-16.26,14.23-16.26-6.1-16.26-14.23Z"/>
        </g>
      </g>
    </g>
    <g id="Symbol">
      <g>
        <path class="cls-2" d="M366.74,231.05l-50.06,50.06c-3.14,3.14-3.14,8.24,0,11.38l190.17,190.17c7.55,7.55,4.99,13.73-5.69,13.73h-129.41c-4.44,0-8.04,3.6-8.04,8.04v64.36c0,4.44,3.6,8.04,8.04,8.04h170.04c66.37,0,120.67-54.3,120.67-120.67v-170.04c0-4.44-3.6-8.04-8.04-8.04h-64.36c-4.44,0-8.04,3.6-8.04,8.04v129.4c0,10.68-6.18,13.24-13.73,5.69l-190.16-190.16c-3.14-3.14-8.24-3.14-11.38,0Z"/>
        <path class="cls-3" d="M366.74,992.23l-50.06-50.06c-3.14-3.14-3.14-8.24,0-11.38l190.17-190.17c7.55-7.55,4.99-13.73-5.69-13.73h-129.41c-4.44,0-8.04-3.6-8.04-8.04v-64.36c0-4.44,3.6-8.04,8.04-8.04h170.04c66.37,0,120.67,54.3,120.67,120.67v170.04c0,4.44-3.6,8.04-8.04,8.04h-64.36c-4.44,0-8.04-3.6-8.04-8.04v-129.4c0-10.68-6.18-13.24-13.73-5.69l-190.16,190.16c-3.14,3.14-8.24,3.14-11.38,0Z"/>
        <path class="cls-1" d="M1027.8,992.23l50.06-50.06c3.14-3.14,3.14-8.24,0-11.38l-190.17-190.17c-7.55-7.55-4.99-13.73,5.69-13.73h129.41c4.44,0,8.04-3.6,8.04-8.04v-64.36c0-4.44-3.6-8.04-8.04-8.04h-170.04c-66.37,0-120.67,54.3-120.67,120.67v170.04c0,4.44,3.6,8.04,8.04,8.04h64.36c4.44,0,8.04-3.6,8.04-8.04v-129.4c0-10.68,6.18-13.24,13.73-5.69l190.16,190.16c3.14,3.14,8.24,3.14,11.38,0Z"/>
      </g>
      <circle class="cls-3" cx="697.27" cy="611.64" r="72.9"/>
    </g>
  </g>
</svg>