<?xml version="1.0" encoding="UTF-8"?>
<svg id="LOGO_COLOR_DARK-HORIZONTAL" xmlns="http://www.w3.org/2000/svg" viewBox="0 0 3165.69 1200">
  <defs>
    <style>
      .cls-1 {
        fill: #00aabc;
      }

      .cls-2 {
        fill: #f7e600;
      }

      .cls-3, .cls-4 {
        fill: #221f1f;
      }

      .cls-4 {
        stroke: #221f1f;
        stroke-miterlimit: 10;
        stroke-width: .75px;
      }
    </style>
  </defs>
  <g id="logo_horizontal">
    <g id="Text">
      <g>
        <path class="cls-4" d="M1355.35,534.52h-34.26c-1.1,0-2.16-.35-3.04-1.01l-142.96-106.61c-3.35-2.5-8.12-.11-8.12,4.08v98.46c0,2.81-2.28,5.08-5.08,5.08h-23.38c-2.81,0-5.08-2.28-5.08-5.08v-217.84c0-2.81,2.28-5.08,5.08-5.08h23.38c2.81,0,5.08,2.28,5.08,5.08v92.11c0,4.15,4.71,6.55,8.07,4.11l138.14-100.33c.87-.63,1.91-.97,2.99-.97h32.33c4.95,0,6.98,6.34,2.96,9.22l-135.45,96.79c-2.81,2.01-2.84,6.19-.05,8.23l142.42,104.57c3.96,2.91,1.9,9.18-3.01,9.18Z"/>
        <path class="cls-4" d="M1485.35,509.44h54.65c2.81,0,5.08,2.28,5.08,5.08v14.92c0,2.81-2.28,5.08-5.08,5.08h-157.57c-2.81,0-5.08-2.28-5.08-5.08v-14.92c0-2.81,2.28-5.08,5.08-5.08h62.79c2.81,0,5.08-2.28,5.08-5.08v-150.61c0-17.59-6.84-24.42-26.39-24.42-7.54,0-13.08.91-19.33,2.99-3.29,1.1-6.72-1.31-6.72-4.78v-14.91c0-2.11,1.29-4.07,3.27-4.81,10.32-3.87,20.69-5.2,31.58-5.2,34.2,0,47.56,13.36,47.56,40.71v161.03c0,2.81,2.28,5.08,5.08,5.08Z"/>
        <path class="cls-4" d="M1564.6,444.62v-69.51c0-2.81,2.28-5.08,5.08-5.08h19.8c2.81,0,5.08,2.28,5.08,5.08v63.32c0,48.21,26.71,74.91,72.31,74.91s72.31-26.7,72.31-74.91v-63.32c0-2.81,2.28-5.08,5.08-5.08h19.8c2.81,0,5.08,2.28,5.08,5.08v154.32c0,2.81-2.28,5.08-5.08,5.08h-19.26c-3.01,0-5.36-2.6-5.06-5.59l4.65-46.52h-4.24c-8.14,31.92-35.5,56.02-83.38,56.02-57.33,0-92.18-34.85-92.18-93.81Z"/>
        <path class="cls-4" d="M1811.44,452.44c0-48.2,38.11-86.31,108.47-86.31,61.3,0,98.76,28.55,107.08,66.34.68,3.09-1.84,5.97-5.01,5.97h-19.93c-2.33,0-4.25-1.61-4.9-3.85-6.67-23.19-31.86-43.38-77.24-43.38-51.14,0-78.5,27.36-78.5,61.23s27.36,60.91,78.5,60.91c45.38,0,70.57-20.19,77.24-43.38.64-2.24,2.57-3.85,4.9-3.85h19.93c3.16,0,5.69,2.88,5.01,5.97-8.31,37.8-45.78,66.34-107.08,66.34-70.36,0-108.47-38.1-108.47-85.99Z"/>
        <path class="cls-4" d="M2147.74,509.44h47.81c2.81,0,5.08,2.28,5.08,5.08v14.92c0,2.81-2.28,5.08-5.08,5.08h-142.92c-2.81,0-5.08-2.28-5.08-5.08v-14.92c0-2.81,2.28-5.08,5.08-5.08h55.96c2.81,0,5.08-2.28,5.08-5.08v-87.09c0-17.59-6.84-24.42-24.1-24.42-6.16,0-10.89.8-15.85,2.29-3.29.99-6.62-1.39-6.62-4.83v-15.03c0-2.16,1.36-4.14,3.4-4.84,8.92-3.02,17.79-4.3,28.19-4.3,30.62,0,43.97,13.35,43.97,41.04v97.19c0,2.81,2.28,5.08,5.08,5.08ZM2102.26,318.9c0-10.42,7.82-18.24,20.85-18.24s20.85,7.82,20.85,18.24-7.82,18.24-20.85,18.24-20.85-7.82-20.85-18.24Z"/>
      </g>
      <path class="cls-4" d="M1133.42,894.26v-15.27c0-1.55.7-3.01,1.91-3.97l138.79-110.84v-4.24h-132.36c-2.81,0-5.08-2.28-5.08-5.08v-14.92c0-2.81,2.28-5.08,5.08-5.08h174.19c2.81,0,5.08,2.28,5.08,5.08v15.27c0,1.55-.7,3.01-1.91,3.97l-138.8,110.85v4.23h138.89c2.81,0,5.08,2.28,5.08,5.08v14.92c0,2.81-2.28,5.08-5.08,5.08h-180.7c-2.81,0-5.08-2.28-5.08-5.08Z"/>
      <g>
        <path class="cls-3" d="M1906.21,726.66c-23.59,0-43.29,5.5-58.56,16.35-13.62,9.68-23.08,23.39-27.39,39.67h-3.53l4.61-46.11c.15-1.53-.35-3.06-1.38-4.21-1.03-1.14-2.51-1.8-4.05-1.8h-19.26c-3.01,0-5.46,2.45-5.46,5.46v154.32c0,3.01,2.45,5.46,5.46,5.46h19.8c3.01,0,5.46-2.45,5.46-5.46v-61.36c0-24.43,6.55-43.52,19.48-56.74,12.82-13.11,31.24-19.76,54.74-19.76s42.16,6.65,55.02,19.76c12.95,13.2,19.52,32.29,19.52,56.74v61.36c0,3.01,2.45,5.46,5.46,5.46h19.8c3.01,0,5.46-2.45,5.46-5.46v-67.55c0-60.2-35.57-96.14-95.16-96.14Z"/>
        <path class="cls-3" d="M2261.19,873.88c-9.52,0-13.96-4.95-13.96-15.58v-48.86c0-53.38-36.57-82.78-102.98-82.78-79.91,0-97.84,40.62-101.84,58.08-.39,1.7,0,3.45,1.07,4.8,1.03,1.3,2.58,2.04,4.24,2.04h20.26c2.26,0,4.21-1.47,4.97-3.75,3.56-10.62,17.6-35.33,70.97-35.33,46.13,0,72.58,20.4,72.58,55.97v15.96c-20.04-11.75-45.52-24.15-93.11-24.15-26.42,0-46.45,4.76-59.54,14.16-11.75,8.43-17.7,20.34-17.7,35.4s5.96,27.22,17.7,35.69c13.07,9.42,33.1,14.2,59.54,14.2,57.92,0,93.79-17.07,93.86-32.9h3.49v1.9c0,19.12,13.25,30.99,34.57,30.99,4.54,0,8.65-.5,12.95-1.56,2.34-.58,4.04-2.81,4.04-5.3v-20.72s-.47.13-.47.13c-3.98,1.09-7.46,1.62-10.65,1.62ZM2216.52,848.49c0,3.4-1.88,6.56-4.91,8.27-22.4,12.62-47.94,18.75-78.1,18.75-24.31,0-56.63-2.73-56.63-26.33,0-11.31,5.87-26.34,56.63-26.34,36.27,0,58.78,8.25,77.69,17.16,3.23,1.52,5.31,4.85,5.31,8.47Z"/>
        <path class="cls-3" d="M2417.49,726.66c-23.59,0-43.29,5.5-58.56,16.35-13.62,9.68-23.08,23.39-27.39,39.67h-3.53l4.61-46.11c.15-1.53-.35-3.06-1.38-4.21s-2.51-1.8-4.05-1.8h-19.26c-3.01,0-5.46,2.45-5.46,5.46v154.32c0,3.01,2.45,5.46,5.46,5.46h19.8c3.01,0,5.46-2.45,5.46-5.46v-61.36c0-24.43,6.55-43.52,19.48-56.74,12.82-13.11,31.24-19.76,54.74-19.76s42.16,6.65,55.03,19.76c12.95,13.2,19.52,32.29,19.52,56.74v61.36c0,3.01,2.45,5.46,5.46,5.46h19.79c3.01,0,5.46-2.45,5.46-5.46v-67.55c0-60.2-35.57-96.14-95.16-96.14Z"/>
        <path class="cls-3" d="M2763.47,826.65h-19.93c-2.44,0-4.55,1.66-5.26,4.12-3.5,12.19-11.78,22.62-23.94,30.17-13.83,8.58-31.65,12.94-52.95,12.94-24.11,0-44.23-6.15-58.18-17.78-12.86-10.72-19.94-25.9-19.94-42.75s7.08-32.27,19.94-43.03c13.94-11.66,34.05-17.83,58.18-17.83,21.3,0,39.11,4.35,52.95,12.94,12.16,7.54,20.43,17.98,23.94,30.17.71,2.47,2.82,4.12,5.26,4.12h19.93c1.69,0,3.27-.76,4.33-2.08,1-1.24,1.38-2.83,1.05-4.35-9.05-41.1-50.22-66.63-107.45-66.63-33.5,0-61.46,8.7-80.85,25.17-18.04,15.32-27.98,37.16-27.98,61.52s9.94,45.96,27.98,61.24c19.41,16.44,47.37,25.13,80.85,25.13,57.23,0,98.4-25.53,107.45-66.63.34-1.52-.05-3.11-1.05-4.35-1.06-1.32-2.64-2.08-4.33-2.08Z"/>
        <path class="cls-3" d="M2852.27,705.27h11.37c3,0,5.83-1.31,7.76-3.61l33.99-40.28c1.39-1.64,1.68-3.87.78-5.82-.91-1.95-2.8-3.16-4.95-3.16h-22.72c-1.89,0-3.62.96-4.63,2.57l-26.22,41.95c-1.07,1.71-1.12,3.78-.15,5.54s2.76,2.81,4.77,2.81Z"/>
        <path class="cls-3" d="M2937.04,869.97h-47.81c-2.6,0-4.71-2.11-4.71-4.71v-97.19c0-28.26-14.09-41.42-44.35-41.42-10.75,0-19.48,1.33-28.32,4.32-2.19.74-3.66,2.83-3.66,5.19v15.03c0,1.73.79,3.31,2.17,4.33,1.42,1.06,3.22,1.37,4.93.86,5.32-1.59,10.03-2.27,15.75-2.27,17.08,0,23.73,6.74,23.73,24.05v87.09c0,2.6-2.11,4.71-4.71,4.71h-55.95c-3.01,0-5.46,2.45-5.46,5.46v14.92c0,3.01,2.45,5.46,5.46,5.46h142.92c3.01,0,5.46-2.45,5.46-5.46v-14.92c0-3.01-2.45-5.46-5.46-5.46Z"/>
        <path class="cls-3" d="M1761.27,869.98h-47.8c-2.6,0-4.71-2.11-4.71-4.71v-85.13c0-28.64-13.98-41.41-45.32-41.41h-185.23c-10.52-4.47-29.99-12.78-29.99-28.28,0-16.39,22.12-24.7,65.74-24.7s63.89,9.79,65.68,29.1c.27,2.91,2.58,5.1,5.38,5.1h19.74c1.55,0,3.04-.66,4.08-1.8,1.02-1.12,1.51-2.55,1.37-4.03-3.06-33.41-38.14-52.56-96.25-52.56-34.94,0-60.78,4.22-76.79,12.54-13.05,6.78-19.66,16.27-19.66,28.22,0,21.87,21.85,31.73,40.71,33.56v2.87h-56.42c-3.01,0-5.46,2.45-5.46,5.46v13.28c0,3.01,2.45,5.46,5.46,5.46h45.2c2.6,0,4.71,2.11,4.71,4.71v122.71c0,3.01,2.45,5.46,5.46,5.46h19.79c3.01,0,5.46-2.45,5.46-5.46v-122.71c0-2.6,2.11-4.71,4.71-4.71h166.22c18.01,0,24.7,6.52,24.7,24.05v78.29c0,2.6-2.11,4.71-4.71,4.71h-55.94c-3.01,0-5.46,2.45-5.46,5.46v14.91c0,3.01,2.45,5.46,5.46,5.46h143.88c3.01,0,5.46-2.45,5.46-5.46v-14.91c0-3.01-2.45-5.46-5.46-5.46Z"/>
        <path class="cls-3" d="M1689.37,699.21c12.1,0,20.23-7.13,20.23-17.75s-8.13-17.75-20.23-17.75-20.23,7.13-20.23,17.75,8.13,17.75,20.23,17.75Z"/>
      </g>
    </g>
    <g id="Symbol">
      <g>
        <path class="cls-2" d="M276.54,215.44l-50.58,50.58c-3.17,3.17-3.17,8.32,0,11.5l192.15,192.15c7.63,7.63,5.05,13.88-5.75,13.88h-130.75c-4.49,0-8.13,3.64-8.13,8.13v65.03c0,4.49,3.64,8.13,8.13,8.13h171.81c67.06,0,121.93-54.87,121.93-121.93v-171.81c0-4.49-3.64-8.13-8.13-8.13h-65.03c-4.49,0-8.13,3.64-8.13,8.13v130.75c0,10.79-6.24,13.38-13.88,5.75l-192.15-192.15c-3.17-3.17-8.32-3.17-11.5,0Z"/>
        <path class="cls-3" d="M276.54,984.56l-50.58-50.58c-3.17-3.17-3.17-8.32,0-11.5l192.15-192.15c7.63-7.63,5.05-13.88-5.75-13.88h-130.75c-4.49,0-8.13-3.64-8.13-8.13v-65.03c0-4.49,3.64-8.13,8.13-8.13h171.81c67.06,0,121.93,54.87,121.93,121.93v171.81c0,4.49-3.64,8.13-8.13,8.13h-65.03c-4.49,0-8.13-3.64-8.13-8.13v-130.75c0-10.79-6.24-13.38-13.88-5.75l-192.15,192.15c-3.17,3.17-8.32,3.17-11.5,0Z"/>
        <path class="cls-1" d="M944.49,984.56l50.58-50.58c3.17-3.17,3.17-8.32,0-11.5l-192.15-192.15c-7.63-7.63-5.05-13.88,5.75-13.88h130.75c4.49,0,8.13-3.64,8.13-8.13v-65.03c0-4.49-3.64-8.13-8.13-8.13h-171.81c-67.06,0-121.93,54.87-121.93,121.93v171.81c0,4.49,3.64,8.13,8.13,8.13h65.03c4.49,0,8.13-3.64,8.13-8.13v-130.75c0-10.79,6.24-13.38,13.88-5.75l192.15,192.15c3.17,3.17,8.32,3.17,11.5,0Z"/>
      </g>
      <circle class="cls-3" cx="610.51" cy="600" r="73.66"/>
    </g>
  </g>
</svg>