<?xml version="1.0" encoding="UTF-8"?>
<svg id="SYMBOL_ORIGINAL" xmlns="http://www.w3.org/2000/svg" viewBox="0 0 1200 1200">
  <defs>
    <style>
      .cls-1 {
        fill: #00aabc;
      }

      .cls-2 {
        fill: #f7e600;
      }

      .cls-3 {
        fill: #221f1f;
      }
    </style>
  </defs>
  <g id="symbol">
    <g>
      <path class="cls-2" d="M238.92,184.23l-54.68,54.68c-3.43,3.43-3.43,9,0,12.43l207.74,207.74c8.25,8.25,5.45,15-6.21,15h-141.37c-4.85,0-8.79,3.93-8.79,8.79v70.31c0,4.85,3.93,8.79,8.79,8.79h185.75c72.5,0,131.82-59.32,131.82-131.82v-185.75c0-4.85-3.93-8.79-8.79-8.79h-70.31c-4.85,0-8.79,3.93-8.79,8.79v141.36c0,11.67-6.75,14.47-15,6.21l-207.74-207.74c-3.43-3.43-9-3.43-12.43,0Z"/>
      <path class="cls-3" d="M238.92,1015.77l-54.68-54.68c-3.43-3.43-3.43-9,0-12.43l207.74-207.74c8.25-8.25,5.45-15-6.21-15h-141.37c-4.85,0-8.79-3.93-8.79-8.79v-70.31c0-4.85,3.93-8.79,8.79-8.79h185.75c72.5,0,131.82,59.32,131.82,131.82v185.75c0,4.85-3.93,8.79-8.79,8.79h-70.31c-4.85,0-8.79-3.93-8.79-8.79v-141.36c0-11.67-6.75-14.47-15-6.21l-207.74,207.74c-3.43,3.43-9,3.43-12.43,0Z"/>
      <path class="cls-1" d="M961.08,1015.77l54.68-54.68c3.43-3.43,3.43-9,0-12.43l-207.74-207.74c-8.25-8.25-5.45-15,6.21-15h141.37c4.85,0,8.79-3.93,8.79-8.79v-70.31c0-4.85-3.93-8.79-8.79-8.79h-185.75c-72.5,0-131.82,59.32-131.82,131.82v185.75c0,4.85,3.93,8.79,8.79,8.79h70.31c4.85,0,8.79-3.93,8.79-8.79v-141.36c0-11.67,6.75-14.47,15-6.21l207.74,207.74c3.43,3.43,9,3.43,12.43,0Z"/>
    </g>
    <circle class="cls-3" cx="600" cy="600" r="79.64"/>
  </g>
</svg>